<?xml version="1.0" encoding="utf-8"?>
<!-- Generator: Adobe Illustrator 21.0.0, SVG Export Plug-In . SVG Version: 6.00 Build 0)  -->
<svg version="1.1" id="svelte" xmlns="http://www.w3.org/2000/svg" xmlns:xlink="http://www.w3.org/1999/xlink" x="0px" y="0px"
	 viewBox="0 0 519 139" style="enable-background:new 0 0 519 139;" xml:space="preserve">
<style type="text/css">
	.st0{fill:#1DA1F2;}
	.st1{fill:#FFFFFF;}
	.st2{fill:#4A4A55;}
</style>
<path id="back" class="st0" d="M103.2,28.4C92.8,13.5,72.3,9.1,57.4,18.6L31.4,35.2c-7.1,4.5-12,11.7-13.5,20
	c-1.2,6.9-0.2,14,3.1,20.2c-2.2,3.4-3.8,7.2-4.5,11.2c-1.5,8.4,0.5,17.1,5.5,24.1c10.4,14.9,30.9,19.3,45.8,9.8L93.8,104
	c7.1-4.5,12-11.7,13.5-20c1.2-6.9,0.1-14-3.1-20.2c2.2-3.4,3.8-7.2,4.5-11.2C110.2,44.1,108.2,35.5,103.2,28.4"/>
<path id="front" class="st1" d="M54.9,112.2c-8.4,2.2-17.3-1.1-22.2-8.3c-3-4.2-4.2-9.4-3.3-14.5c0.1-0.8,0.4-1.6,0.6-2.4l0.5-1.5
	l1.3,1c3.1,2.2,6.5,4,10.2,5.1l1,0.3l-0.1,1c-0.1,1.4,0.3,2.7,1.1,3.8c1.5,2.1,4.2,3.1,6.7,2.5c0.6-0.2,1.1-0.4,1.6-0.7l26-16.6
	c1.3-0.8,2.2-2.1,2.4-3.6c0.3-1.5-0.1-3.1-1-4.4c-1.5-2.1-4.2-3.1-6.7-2.5c-0.6,0.2-1.1,0.4-1.6,0.7l-10,6.3c-1.6,1-3.4,1.8-5.3,2.3
	c-8.4,2.2-17.3-1.1-22.2-8.2c-3-4.2-4.2-9.4-3.2-14.5c0.9-5,3.8-9.4,8.1-12.1L65,29.3c1.6-1,3.4-1.8,5.3-2.3
	c8.4-2.2,17.3,1.1,22.2,8.3c3,4.2,4.2,9.4,3.3,14.5c-0.2,0.8-0.4,1.6-0.6,2.4l-0.5,1.5l-1.3-1c-3.1-2.3-6.5-4-10.2-5.1l-1-0.3l0.1-1
	c0.1-1.4-0.3-2.8-1.1-3.9c-1.5-2.1-4.2-3.1-6.7-2.4c-0.6,0.2-1.1,0.4-1.6,0.7L46.8,57.3c-1.3,0.8-2.2,2.1-2.5,3.6
	c-0.3,1.5,0.1,3.1,1,4.4c1.5,2.1,4.1,3.1,6.7,2.5c0.6-0.2,1.1-0.4,1.6-0.7l10-6.3c1.6-1,3.4-1.8,5.3-2.3c8.4-2.2,17.3,1.1,22.2,8.2
	c3,4.2,4.2,9.4,3.3,14.5c-0.9,5-3.8,9.4-8.1,12.1l-26.1,16.6C58.6,110.9,56.8,111.7,54.9,112.2"/>
<g>
	<g>
		<g>
			<path class="st2" d="M177.1,85.2c0-2.6-0.6-4.8-1.8-6.6c-1.2-1.8-3.1-3.4-5.8-4.8c-2.6-1.4-6.6-2.8-11.9-4.3
				c-5.3-1.5-9.3-2.9-11.9-4.4c-2.6-1.5-4.6-3.2-5.8-5.2c-1.2-2-1.8-4.3-1.8-7.1c0-4.5,1.9-8.1,5.6-10.8c3.8-2.8,8.6-4.1,14.7-4.1
				c3.9,0,7.4,0.8,10.6,2.3c3.1,1.5,5.5,3.7,7.2,6.4c1.7,2.8,2.6,5.9,2.6,9.3h-2.3c0-4.6-1.7-8.3-5-11.3c-3.4-3-7.7-4.5-13.1-4.5
				c-5.4,0-9.7,1.2-13,3.6c-3.3,2.4-5,5.4-5,9c0,3.7,1.4,6.6,4.3,8.9c2.9,2.2,7.6,4.2,14.3,5.9c6.6,1.7,11.5,3.7,14.6,6
				c3.9,2.9,5.9,6.7,5.9,11.6c0,3.1-0.9,5.8-2.6,8.2c-1.7,2.4-4.2,4.2-7.4,5.5s-6.8,1.9-10.8,1.9c-4.4,0-8.4-0.7-11.9-2.2
				c-3.5-1.5-6.2-3.6-8-6.3c-1.8-2.7-2.7-5.9-2.7-9.6h2.3c0,5,1.9,8.9,5.6,11.7c3.8,2.8,8.6,4.2,14.7,4.2c5.3,0,9.8-1.2,13.2-3.7
				C175.3,92.3,177.1,89.1,177.1,85.2z"/>
			<path class="st2" d="M158.6,103.7c-4.8,0-9.2-0.8-13.1-2.4c-4.1-1.7-7.2-4.2-9.3-7.4c-2.1-3.2-3.2-7-3.2-11.3c0-1.7,1.3-3,3-3
				h2.3c1.7,0,3,1.3,3,3c0,4,1.4,7.1,4.4,9.3c3.2,2.4,7.5,3.6,12.9,3.6c4.7,0,8.6-1.1,11.5-3.1c2.7-1.9,3.9-4.2,3.9-7.1
				c0-2-0.4-3.6-1.3-4.9c-0.9-1.4-2.5-2.7-4.7-3.8c-2.4-1.3-6.2-2.6-11.3-4c-5.6-1.5-9.7-3.1-12.6-4.7c-3.1-1.7-5.4-3.8-6.9-6.2
				c-1.5-2.4-2.3-5.4-2.3-8.7c0-5.4,2.3-9.9,6.9-13.2c4.3-3.1,9.8-4.7,16.4-4.7c4.4,0,8.4,0.9,11.9,2.6c3.6,1.8,6.5,4.3,8.5,7.5
				c2,3.2,3,6.9,3,10.9c0,1.7-1.3,3-3,3h-2.3c-1.7,0-3-1.3-3-3c0-3.7-1.3-6.7-4-9.1c-2.8-2.5-6.4-3.7-11.1-3.7c-4.7,0-8.5,1-11.3,3
				c-2.5,1.8-3.7,3.9-3.7,6.6c0,2.8,1,4.8,3.2,6.5c2.5,2,7,3.8,13.2,5.4c7.1,1.8,12.2,4,15.6,6.5c4.7,3.5,7.1,8.2,7.1,14
				c0,3.7-1.1,7.1-3.2,9.9c-2.1,2.8-5,5-8.7,6.5C167,103,163,103.7,158.6,103.7z"/>
		</g>
		<g>
			<path class="st2" d="M205.6,96.1l2.8-10.1l14.4-47.3h2.5L239.7,86l2.7,10.1l2.9-10.1l12.6-47.3h2.5l-16.5,61.1h-2.6l-15.2-51
				l-2.1-6.5l-2.1,6.5l-15.3,51h-2.6l-16.5-61.1h2.5L202.8,86L205.6,96.1z"/>
			<path class="st2" d="M243.9,102.9h-2.6c-1.3,0-2.5-0.9-2.9-2.1l-14.4-48.4l-14.5,48.4c-0.4,1.3-1.5,2.1-2.9,2.1h-2.6
				c-1.4,0-2.5-0.9-2.9-2.2l-16.5-61.1c-0.2-0.9-0.1-1.9,0.5-2.6c0.6-0.7,1.4-1.2,2.4-1.2h2.5c1.4,0,2.5,0.9,2.9,2.2l12.6,46.8
				L220,37.9c0.4-1.3,1.5-2.1,2.9-2.1h2.5c1.3,0,2.5,0.9,2.9,2.1l14.3,47L255,38c0.3-1.3,1.5-2.2,2.9-2.2h2.5c0.9,0,1.8,0.4,2.4,1.2
				c0.6,0.7,0.8,1.7,0.5,2.6l-16.5,61.1C246.4,102,245.3,102.9,243.9,102.9z"/>
		</g>
		<g>
			<path class="st2" d="M277.5,99.9h-2.3V38.7h2.3V99.9z"/>
			<path class="st2" d="M277.5,102.9h-2.3c-1.7,0-3-1.3-3-3V38.7c0-1.7,1.3-3,3-3h2.3c1.7,0,3,1.3,3,3v61.1
				C280.5,101.5,279.1,102.9,277.5,102.9z"/>
		</g>
		<g>
			<path class="st2" d="M337.6,41h-22.3v58.9H313V41h-22.3v-2.3h46.8V41z"/>
			<path class="st2" d="M315.3,102.9H313c-1.7,0-3-1.3-3-3V44h-19.3c-1.7,0-3-1.3-3-3v-2.3c0-1.7,1.3-3,3-3h46.8c1.7,0,3,1.3,3,3V41
				c0,1.7-1.3,3-3,3h-19.3v55.9C318.3,101.5,317,102.9,315.3,102.9z"/>
		</g>
		<g>
			<path class="st2" d="M393.8,41h-22.3v58.9h-2.3V41H347v-2.3h46.8V41z"/>
			<path class="st2" d="M371.5,102.9h-2.3c-1.7,0-3-1.3-3-3V44H347c-1.7,0-3-1.3-3-3v-2.3c0-1.7,1.3-3,3-3h46.8c1.7,0,3,1.3,3,3V41
				c0,1.7-1.3,3-3,3h-19.3v55.9C374.5,101.5,373.2,102.9,371.5,102.9z"/>
		</g>
		<g>
			<path class="st2" d="M439.6,69.5h-30.7v28.1h34.9v2.3h-37.2V38.7h37.2V41h-34.9v26.3h30.7V69.5z"/>
			<path class="st2" d="M443.8,102.9h-37.2c-1.7,0-3-1.3-3-3V38.7c0-1.7,1.3-3,3-3h37.2c1.7,0,3,1.3,3,3V41c0,1.7-1.3,3-3,3h-31.9
				v20.3h27.7c1.7,0,3,1.3,3,3v2.3c0,1.7-1.3,3-3,3h-27.7v22.1h31.9c1.7,0,3,1.3,3,3v2.3C446.8,101.5,445.5,102.9,443.8,102.9z"/>
		</g>
		<g>
			<path class="st2" d="M481,73.7h-21.2v26.2h-2.3V38.7H477c6.1,0,11,1.6,14.6,4.7c3.6,3.2,5.4,7.5,5.4,12.9c0,4.2-1.3,7.8-3.9,10.9
				c-2.6,3.1-5.9,5.1-9.9,5.8l16.3,26.2v0.6h-2.4L481,73.7z M459.8,71.4h19.3c4.7,0,8.5-1.4,11.4-4.3c2.9-2.9,4.3-6.5,4.3-10.8
				c0-4.8-1.6-8.5-4.8-11.3c-3.2-2.7-7.6-4.1-13.2-4.1h-17V71.4z"/>
			<path class="st2" d="M499.7,102.9h-2.4c-1,0-2-0.5-2.5-1.4l-15.4-24.7h-16.5v23.2c0,1.7-1.3,3-3,3h-2.3c-1.7,0-3-1.3-3-3V38.7
				c0-1.7,1.3-3,3-3H477c6.8,0,12.4,1.8,16.6,5.5c4.3,3.7,6.5,8.8,6.5,15.2c0,4.9-1.5,9.2-4.6,12.9c-2.1,2.5-4.6,4.4-7.6,5.6
				l14.3,22.8c0.3,0.5,0.5,1,0.5,1.6v0.6C502.7,101.5,501.3,102.9,499.7,102.9z M462.8,68.4h16.3c3.9,0,7-1.1,9.3-3.4
				c2.3-2.3,3.5-5.1,3.5-8.7c0-3.9-1.2-6.8-3.8-9c-2.6-2.3-6.4-3.4-11.2-3.4h-14V68.4z"/>
		</g>
	</g>
</g>
</svg>
